<?xml version="1.0" standalone="no"?>
<!DOCTYPE svg PUBLIC "-//W3C//DTD SVG 20010904//EN"
 "http://www.w3.org/TR/2001/REC-SVG-20010904/DTD/svg10.dtd">
<svg version="1.0" xmlns="http://www.w3.org/2000/svg"
 width="500.000000pt" height="500.000000pt" viewBox="0 0 500.000000 500.000000"
 preserveAspectRatio="xMidYMid meet">
<metadata>
Created by potrace 1.11, written by Peter Selinger 2001-2013
</metadata>
<g transform="translate(0.000000,500.000000) scale(0.100000,-0.100000)"
fill="#000000" stroke="none">
<path d="M971 4006 l-874 -874 318 -1189 c175 -653 323 -1193 329 -1200 6 -6
546 -154 1199 -329 l1188 -318 879 880 878 879 -319 1189 c-175 655 -322 1193
-326 1197 -10 10 -2355 639 -2380 639 -10 0 -391 -373 -892 -874z m1677 138
c562 -405 729 -530 715 -536 -20 -8 -2406 -548 -2421 -548 -6 0 207 365 471
810 265 446 487 808 492 806 6 -2 340 -241 743 -532z m522 226 c454 -121 832
-223 840 -225 11 -4 -56 -77 -216 -236 l-231 -231 -634 457 c-349 252 -638
461 -643 466 -5 5 6 4 25 -1 19 -5 405 -108 859 -230z m-1733 -152 c-534 -901
-692 -1165 -701 -1175 -8 -8 -58 3 -201 45 -104 31 -192 57 -195 59 -3 3 1130
1143 1137 1143 2 0 -17 -33 -40 -72z m2941 -1073 c127 -473 229 -861 228 -862
-1 -2 -210 286 -465 639 l-462 641 227 228 c126 126 232 225 235 221 4 -4 111
-394 237 -867z m-1196 -945 c-157 -696 -287 -1267 -289 -1270 -2 -2 -444 436
-983 975 -539 539 -977 982 -974 985 5 5 2527 579 2531 576 1 -1 -127 -570
-285 -1266z m968 440 c288 -398 523 -730 524 -737 1 -13 -1607 -975 -1612
-964 -1 4 122 552 273 1220 151 667 275 1216 275 1219 0 11 22 -18 540 -738z
m-3651 294 l188 -56 6 -317 c11 -519 17 -1097 13 -1086 -3 6 -93 341 -201 745
-108 404 -199 743 -201 753 -3 9 -3 17 1 17 3 0 91 -25 194 -56z m2221 -2082
c-21 -4 -1832 27 -1836 31 -1 1 -7 290 -13 642 -6 352 -14 771 -17 930 l-6
290 946 -945 c730 -729 942 -946 926 -948z m1005 58 c-313 -313 -573 -566
-576 -562 -12 13 -117 377 -110 384 3 3 281 169 616 368 336 199 614 366 620
371 5 5 11 9 14 9 3 0 -250 -256 -564 -570z m-1505 -211 c360 -6 656 -12 658
-14 6 -5 113 -377 109 -381 -3 -4 -1478 387 -1512 401 -17 6 73 6 745 -6z"/>
</g>
</svg>
